<svg width="16" height="16" viewBox="0 0 16 16" fill="none" xmlns="http://www.w3.org/2000/svg">
<g id="Logo">
<mask id="path-1-inside-1_2068_11990" fill="white">
<path fill-rule="evenodd" clip-rule="evenodd" d="M4.44202 15.2926C4.37754 15.2882 4.3128 15.2846 4.24819 15.2788C3.88657 15.245 3.55498 15.1278 3.26059 14.9156C2.75265 14.5497 2.42789 14.063 2.29839 13.4506C2.25003 13.2204 2.23651 12.9882 2.25127 12.7538C2.26801 12.4787 2.32307 12.2119 2.41087 11.951C2.55112 11.5345 2.76268 11.1567 3.03043 10.8083C3.23219 10.5459 3.46062 10.3081 3.71234 10.0924C3.94796 9.89039 4.16174 9.66729 4.36216 9.4311C4.61427 9.13335 4.84232 8.81783 5.06765 8.50008C5.26681 8.21911 5.46252 7.93653 5.67395 7.66493C5.83293 7.46009 6.00059 7.2628 6.18735 7.08262C6.42111 6.85743 6.67904 6.66678 6.9831 6.54314C7.21116 6.45023 7.44812 6.40111 7.69479 6.39593C7.97356 6.38951 8.24899 6.41703 8.52007 6.48293C8.93499 6.58423 9.29452 6.78512 9.60405 7.0773C9.81573 7.27807 9.99491 7.50524 10.1616 7.74301C10.3383 7.99511 10.5006 8.25633 10.668 8.5146C10.8568 8.80544 11.0517 9.0916 11.2695 9.36232C11.4864 9.63206 11.7257 9.88095 11.987 10.1086C12.3031 10.384 12.5836 10.6907 12.8226 11.0348C13.0263 11.3301 13.1923 11.644 13.3083 11.9833C13.3986 12.2476 13.4554 12.5179 13.4698 12.7972C13.492 13.2215 13.4184 13.6271 13.225 14.0086C13.0459 14.3623 12.7867 14.6462 12.4612 14.8718C12.2219 15.0375 11.9638 15.1635 11.6794 15.2335C11.5789 15.2587 11.4766 15.2767 11.3733 15.2866C11.3589 15.288 11.345 15.2907 11.3311 15.2928C11.3176 15.3004 11.3027 15.2947 11.2884 15.2965C11.2767 15.2981 11.2643 15.2928 11.2531 15.3002H10.9882C10.9777 15.2925 10.9658 15.2978 10.9546 15.2965H10.8988C10.6728 15.2892 10.4535 15.2423 10.2349 15.192C9.86431 15.106 9.50122 14.9929 9.13265 14.8995C8.83416 14.8241 8.53318 14.7629 8.2269 14.7281C8.01459 14.7039 7.80178 14.7012 7.58962 14.7085C7.41985 14.7142 7.25133 14.7402 7.08441 14.7711C6.75479 14.8328 6.43173 14.9211 6.10859 15.0088C5.76668 15.1023 5.4248 15.1952 5.07486 15.2521C4.9325 15.2749 4.78989 15.2945 4.64518 15.2931C4.61554 15.2928 4.58602 15.2972 4.55589 15.2965C4.51745 15.2944 4.47972 15.3012 4.44202 15.2926Z"/>
<path fill-rule="evenodd" clip-rule="evenodd" d="M10.9731 0.705837C11.4496 0.762845 11.8135 1.00371 12.0916 1.38377C12.2822 1.64438 12.4019 1.93657 12.4762 2.24902C12.5397 2.51814 12.5637 2.79121 12.5546 3.06749C12.5379 3.57513 12.4181 4.05736 12.1966 4.5149C12.0432 4.83189 11.8452 5.11781 11.5927 5.36436C11.3677 5.58351 11.1134 5.75859 10.8165 5.86782C10.6079 5.94445 10.3935 5.98233 10.1713 5.96913C9.78663 5.94704 9.46 5.7949 9.18555 5.52922C8.95154 5.30242 8.79205 5.02825 8.6817 4.72468C8.60457 4.51244 8.55633 4.29355 8.53128 4.06984C8.51392 3.91646 8.50697 3.76296 8.51193 3.60934C8.52334 3.24692 8.5887 2.89401 8.70712 2.55136C8.83287 2.1866 9.01094 1.85037 9.25411 1.54964C9.45873 1.29668 9.69783 1.08285 9.98479 0.924905C10.1956 0.808667 10.4202 0.733517 10.6605 0.706492C10.6678 0.70242 10.6758 0.704147 10.6833 0.703654H10.7061C10.7172 0.702296 10.729 0.707604 10.7386 0.699707H10.8948C10.9049 0.707728 10.9162 0.70242 10.9272 0.703654H10.9502C10.9575 0.70353 10.9657 0.701518 10.9731 0.705837Z"/>
<path fill-rule="evenodd" clip-rule="evenodd" d="M0.0143888 6.30367C0.0218295 6.15893 0.0479953 6.0169 0.0861893 5.87722C0.160098 5.60562 0.281256 5.35821 0.469877 5.14622C0.680692 4.90967 0.941373 4.75666 1.2535 4.69497C1.50698 4.64512 1.75709 4.66646 2.003 4.74186C2.28562 4.82873 2.53561 4.97643 2.75784 5.16869C3.10308 5.46644 3.3506 5.83278 3.52197 6.25197C3.61163 6.47149 3.67363 6.6988 3.70798 6.93322C3.72473 7.04699 3.73266 7.16138 3.73502 7.27637C3.73911 7.49466 3.71704 7.70936 3.66272 7.92063C3.59017 8.20246 3.46803 8.45887 3.27332 8.67851C3.04985 8.93036 2.77135 9.08721 2.43738 9.14113C2.19233 9.18074 1.9515 9.15408 1.71578 9.07832C1.39881 8.9759 1.12711 8.80007 0.887902 8.57239C0.654516 8.3509 0.469009 8.09376 0.324532 7.80772C0.182791 7.52712 0.0850678 7.23135 0.0379467 6.92026C0.0297622 6.86523 0.0230672 6.81019 0.0155027 6.7554C0.00967438 6.73023 0.011904 6.70469 0.00595156 6.67964C0.00309934 6.66915 0.00471308 6.65928 0.00421701 6.64854C0.00210886 6.63522 0.00818452 6.62103 0 6.6077V6.40607C0.012649 6.38769 0.00644927 6.3672 0.00781341 6.34746C0.00892948 6.3329 0.0052121 6.31724 0.0143888 6.30367Z"/>
<path fill-rule="evenodd" clip-rule="evenodd" d="M3.35945 3.06894C3.36106 2.66864 3.41835 2.30758 3.5529 1.9601C3.65447 1.69739 3.79385 1.45714 3.98792 1.25033C4.197 1.02711 4.44539 0.866937 4.74489 0.79166C5.04449 0.715897 5.33889 0.737489 5.62832 0.841755C5.88328 0.933685 6.10563 1.07879 6.30318 1.26192C6.61854 1.55374 6.84436 1.90618 7.00519 2.30113C7.10738 2.55236 7.17781 2.81199 7.21799 3.07964C7.24081 3.23142 7.25395 3.38443 7.25706 3.53854C7.2604 3.73239 7.24813 3.92563 7.21601 4.11699C7.14916 4.51691 7.01276 4.88956 6.76959 5.21891C6.6183 5.42325 6.43463 5.59217 6.2092 5.71385C5.95734 5.84971 5.68761 5.90647 5.40227 5.8845C5.14434 5.86488 4.90649 5.78098 4.68465 5.65005C4.39521 5.47952 4.16096 5.24951 3.96588 4.97891C3.7346 4.65746 3.57562 4.30209 3.47505 3.92018C3.41999 3.71127 3.38477 3.49878 3.36877 3.28334C3.36232 3.20264 3.35672 3.12138 3.35945 3.06894Z"/>
<path fill-rule="evenodd" clip-rule="evenodd" d="M15.9999 6.53834V6.58486C15.9821 6.97085 15.8782 7.33424 15.7107 7.68071C15.5787 7.9523 15.4104 8.19972 15.202 8.4191C14.9346 8.70106 14.6244 8.92096 14.2556 9.05297C14.0346 9.13206 13.807 9.17094 13.5718 9.1581C13.2245 9.13861 12.9215 9.01336 12.6665 8.7778C12.4561 8.58308 12.3172 8.34358 12.2297 8.07397C12.151 7.83237 12.1191 7.58323 12.1272 7.32954C12.1444 6.77181 12.3216 6.26477 12.6287 5.8008C12.7324 5.64371 12.8513 5.4986 12.9846 5.36594C13.2589 5.0941 13.5725 4.88493 13.9439 4.76647C14.1551 4.69959 14.371 4.66899 14.5921 4.68614C14.9299 4.71218 15.2244 4.83927 15.4716 5.07124C15.6946 5.28052 15.8352 5.53892 15.9201 5.82913C15.967 5.98942 15.9944 6.15342 16 6.32062V6.36751C15.9981 6.42415 15.9982 6.48121 15.9999 6.53834Z"/>
</mask>
<path fill-rule="evenodd" clip-rule="evenodd" d="M4.44202 15.2926C4.37754 15.2882 4.3128 15.2846 4.24819 15.2788C3.88657 15.245 3.55498 15.1278 3.26059 14.9156C2.75265 14.5497 2.42789 14.063 2.29839 13.4506C2.25003 13.2204 2.23651 12.9882 2.25127 12.7538C2.26801 12.4787 2.32307 12.2119 2.41087 11.951C2.55112 11.5345 2.76268 11.1567 3.03043 10.8083C3.23219 10.5459 3.46062 10.3081 3.71234 10.0924C3.94796 9.89039 4.16174 9.66729 4.36216 9.4311C4.61427 9.13335 4.84232 8.81783 5.06765 8.50008C5.26681 8.21911 5.46252 7.93653 5.67395 7.66493C5.83293 7.46009 6.00059 7.2628 6.18735 7.08262C6.42111 6.85743 6.67904 6.66678 6.9831 6.54314C7.21116 6.45023 7.44812 6.40111 7.69479 6.39593C7.97356 6.38951 8.24899 6.41703 8.52007 6.48293C8.93499 6.58423 9.29452 6.78512 9.60405 7.0773C9.81573 7.27807 9.99491 7.50524 10.1616 7.74301C10.3383 7.99511 10.5006 8.25633 10.668 8.5146C10.8568 8.80544 11.0517 9.0916 11.2695 9.36232C11.4864 9.63206 11.7257 9.88095 11.987 10.1086C12.3031 10.384 12.5836 10.6907 12.8226 11.0348C13.0263 11.3301 13.1923 11.644 13.3083 11.9833C13.3986 12.2476 13.4554 12.5179 13.4698 12.7972C13.492 13.2215 13.4184 13.6271 13.225 14.0086C13.0459 14.3623 12.7867 14.6462 12.4612 14.8718C12.2219 15.0375 11.9638 15.1635 11.6794 15.2335C11.5789 15.2587 11.4766 15.2767 11.3733 15.2866C11.3589 15.288 11.345 15.2907 11.3311 15.2928C11.3176 15.3004 11.3027 15.2947 11.2884 15.2965C11.2767 15.2981 11.2643 15.2928 11.2531 15.3002H10.9882C10.9777 15.2925 10.9658 15.2978 10.9546 15.2965H10.8988C10.6728 15.2892 10.4535 15.2423 10.2349 15.192C9.86431 15.106 9.50122 14.9929 9.13265 14.8995C8.83416 14.8241 8.53318 14.7629 8.2269 14.7281C8.01459 14.7039 7.80178 14.7012 7.58962 14.7085C7.41985 14.7142 7.25133 14.7402 7.08441 14.7711C6.75479 14.8328 6.43173 14.9211 6.10859 15.0088C5.76668 15.1023 5.4248 15.1952 5.07486 15.2521C4.9325 15.2749 4.78989 15.2945 4.64518 15.2931C4.61554 15.2928 4.58602 15.2972 4.55589 15.2965C4.51745 15.2944 4.47972 15.3012 4.44202 15.2926Z" stroke="#C2D0D2" stroke-width="2" mask="url(#path-1-inside-1_2068_11990)"/>
<path fill-rule="evenodd" clip-rule="evenodd" d="M10.9731 0.705837C11.4496 0.762845 11.8135 1.00371 12.0916 1.38377C12.2822 1.64438 12.4019 1.93657 12.4762 2.24902C12.5397 2.51814 12.5637 2.79121 12.5546 3.06749C12.5379 3.57513 12.4181 4.05736 12.1966 4.5149C12.0432 4.83189 11.8452 5.11781 11.5927 5.36436C11.3677 5.58351 11.1134 5.75859 10.8165 5.86782C10.6079 5.94445 10.3935 5.98233 10.1713 5.96913C9.78663 5.94704 9.46 5.7949 9.18555 5.52922C8.95154 5.30242 8.79205 5.02825 8.6817 4.72468C8.60457 4.51244 8.55633 4.29355 8.53128 4.06984C8.51392 3.91646 8.50697 3.76296 8.51193 3.60934C8.52334 3.24692 8.5887 2.89401 8.70712 2.55136C8.83287 2.1866 9.01094 1.85037 9.25411 1.54964C9.45873 1.29668 9.69783 1.08285 9.98479 0.924905C10.1956 0.808667 10.4202 0.733517 10.6605 0.706492C10.6678 0.70242 10.6758 0.704147 10.6833 0.703654H10.7061C10.7172 0.702296 10.729 0.707604 10.7386 0.699707H10.8948C10.9049 0.707728 10.9162 0.70242 10.9272 0.703654H10.9502C10.9575 0.70353 10.9657 0.701518 10.9731 0.705837Z" stroke="#C2D0D2" stroke-width="2" mask="url(#path-1-inside-1_2068_11990)"/>
<path fill-rule="evenodd" clip-rule="evenodd" d="M0.0143888 6.30367C0.0218295 6.15893 0.0479953 6.0169 0.0861893 5.87722C0.160098 5.60562 0.281256 5.35821 0.469877 5.14622C0.680692 4.90967 0.941373 4.75666 1.2535 4.69497C1.50698 4.64512 1.75709 4.66646 2.003 4.74186C2.28562 4.82873 2.53561 4.97643 2.75784 5.16869C3.10308 5.46644 3.3506 5.83278 3.52197 6.25197C3.61163 6.47149 3.67363 6.6988 3.70798 6.93322C3.72473 7.04699 3.73266 7.16138 3.73502 7.27637C3.73911 7.49466 3.71704 7.70936 3.66272 7.92063C3.59017 8.20246 3.46803 8.45887 3.27332 8.67851C3.04985 8.93036 2.77135 9.08721 2.43738 9.14113C2.19233 9.18074 1.9515 9.15408 1.71578 9.07832C1.39881 8.9759 1.12711 8.80007 0.887902 8.57239C0.654516 8.3509 0.469009 8.09376 0.324532 7.80772C0.182791 7.52712 0.0850678 7.23135 0.0379467 6.92026C0.0297622 6.86523 0.0230672 6.81019 0.0155027 6.7554C0.00967438 6.73023 0.011904 6.70469 0.00595156 6.67964C0.00309934 6.66915 0.00471308 6.65928 0.00421701 6.64854C0.00210886 6.63522 0.00818452 6.62103 0 6.6077V6.40607C0.012649 6.38769 0.00644927 6.3672 0.00781341 6.34746C0.00892948 6.3329 0.0052121 6.31724 0.0143888 6.30367Z" stroke="#C2D0D2" stroke-width="2" mask="url(#path-1-inside-1_2068_11990)"/>
<path fill-rule="evenodd" clip-rule="evenodd" d="M3.35945 3.06894C3.36106 2.66864 3.41835 2.30758 3.5529 1.9601C3.65447 1.69739 3.79385 1.45714 3.98792 1.25033C4.197 1.02711 4.44539 0.866937 4.74489 0.79166C5.04449 0.715897 5.33889 0.737489 5.62832 0.841755C5.88328 0.933685 6.10563 1.07879 6.30318 1.26192C6.61854 1.55374 6.84436 1.90618 7.00519 2.30113C7.10738 2.55236 7.17781 2.81199 7.21799 3.07964C7.24081 3.23142 7.25395 3.38443 7.25706 3.53854C7.2604 3.73239 7.24813 3.92563 7.21601 4.11699C7.14916 4.51691 7.01276 4.88956 6.76959 5.21891C6.6183 5.42325 6.43463 5.59217 6.2092 5.71385C5.95734 5.84971 5.68761 5.90647 5.40227 5.8845C5.14434 5.86488 4.90649 5.78098 4.68465 5.65005C4.39521 5.47952 4.16096 5.24951 3.96588 4.97891C3.7346 4.65746 3.57562 4.30209 3.47505 3.92018C3.41999 3.71127 3.38477 3.49878 3.36877 3.28334C3.36232 3.20264 3.35672 3.12138 3.35945 3.06894Z" stroke="#C2D0D2" stroke-width="2" mask="url(#path-1-inside-1_2068_11990)"/>
<path fill-rule="evenodd" clip-rule="evenodd" d="M15.9999 6.53834V6.58486C15.9821 6.97085 15.8782 7.33424 15.7107 7.68071C15.5787 7.9523 15.4104 8.19972 15.202 8.4191C14.9346 8.70106 14.6244 8.92096 14.2556 9.05297C14.0346 9.13206 13.807 9.17094 13.5718 9.1581C13.2245 9.13861 12.9215 9.01336 12.6665 8.7778C12.4561 8.58308 12.3172 8.34358 12.2297 8.07397C12.151 7.83237 12.1191 7.58323 12.1272 7.32954C12.1444 6.77181 12.3216 6.26477 12.6287 5.8008C12.7324 5.64371 12.8513 5.4986 12.9846 5.36594C13.2589 5.0941 13.5725 4.88493 13.9439 4.76647C14.1551 4.69959 14.371 4.66899 14.5921 4.68614C14.9299 4.71218 15.2244 4.83927 15.4716 5.07124C15.6946 5.28052 15.8352 5.53892 15.9201 5.82913C15.967 5.98942 15.9944 6.15342 16 6.32062V6.36751C15.9981 6.42415 15.9982 6.48121 15.9999 6.53834Z" stroke="#C2D0D2" stroke-width="2" mask="url(#path-1-inside-1_2068_11990)"/>
</g>
</svg>
