<svg width="16" height="17" viewBox="0 0 16 17" fill="none" xmlns="http://www.w3.org/2000/svg">
<g id="Frame 627247">
<g id="Group 624892">
<g id="elements">
<path id="Vector 4571" d="M9.53126 2.91128L9.67773 2.11523" stroke="#C2D0D2" stroke-linecap="round" stroke-linejoin="round"/>
<path id="Vector" d="M9.53161 2.9111C9.03315 2.81938 6.78785 4.48745 6.01322 7.03912M9.53161 2.9111C10.0301 3.00282 11.5345 5.36088 11.3501 8.02115M9.53161 2.9111C12.1515 3.39318 14.0014 5.61853 14.0574 8.13323C13.2038 8.63456 11.8969 8.2674 11.3501 8.02115M9.53161 2.9111C6.91172 2.42902 4.39087 3.85013 3.44339 6.18017C4.06277 6.95255 5.41469 7.07463 6.01322 7.03912M6.01322 7.03912C6.72024 7.62196 7.58486 8.03957 8.55508 8.2181C9.52531 8.39663 10.482 8.31415 11.3501 8.02115" stroke="#C2D0D2" stroke-linecap="round" stroke-linejoin="round"/>
<path id="Vector 4572" d="M7.62023 12.4708L8.55664 8.21875" stroke="#C2D0D2" stroke-linecap="round" stroke-linejoin="round"/>
</g>
<path id="Line 275" d="M2 15.4998C6.46372 12.7118 8.91112 12.7938 13.2419 15.4998" stroke="#C2D0D2" stroke-linecap="round"/>
</g>
</g>
</svg>
