<svg width="14" height="16" viewBox="0 0 14 16" fill="none" xmlns="http://www.w3.org/2000/svg">
    <g id="elements">
        <path id="Ellipse 1971"
            d="M9.33268 7.33333C9.33268 8.622 8.28801 9.66667 6.99935 9.66667C5.71068 9.66667 4.66602 8.622 4.66602 7.33333C4.66602 6.04467 5.71068 5 6.99935 5C8.28801 5 9.33268 6.04467 9.33268 7.33333Z"
            stroke="#C2D0D2" />
        <path id="Vector"
            d="M7 1.33337C10.247 1.33337 13 4.02203 13 7.28388C13 10.5977 10.2022 12.9232 7.618 14.5045C7.42967 14.6108 7.2167 14.6667 7 14.6667C6.7833 14.6667 6.57033 14.6108 6.382 14.5045C3.8026 12.9077 1 10.6091 1 7.28388C1 4.02202 3.75296 1.33337 7 1.33337Z"
            stroke="#C2D0D2" />
    </g>
</svg>