<svg width="23" height="24" viewBox="0 0 23 24" fill="none" xmlns="http://www.w3.org/2000/svg">
<g id="elements">
<path id="Vector" d="M20.3175 7.14139L19.8239 6.28479C19.4506 5.63696 19.264 5.31305 18.9464 5.18388C18.6288 5.05472 18.2696 5.15664 17.5513 5.36048L16.3311 5.70418C15.8725 5.80994 15.3913 5.74994 14.9726 5.53479L14.6357 5.34042C14.2766 5.11043 14.0004 4.77133 13.8475 4.37274L13.5136 3.37536C13.294 2.71534 13.1842 2.38533 12.9228 2.19657C12.6615 2.00781 12.3143 2.00781 11.6199 2.00781L10.5051 2.00781C9.81078 2.00781 9.4636 2.00781 9.20223 2.19657C8.94085 2.38533 8.83106 2.71534 8.61149 3.37536L8.27753 4.37274C8.12465 4.77133 7.84845 5.11043 7.48937 5.34042L7.15249 5.53479C6.73374 5.74994 6.25259 5.80994 5.79398 5.70418L4.57375 5.36048C3.85541 5.15664 3.49625 5.05472 3.17867 5.18388C2.86109 5.31305 2.67445 5.63696 2.30115 6.28479L1.80757 7.14139C1.45766 7.74864 1.2827 8.05227 1.31666 8.37549C1.35061 8.69871 1.58483 8.95918 2.05326 9.48012L3.0843 10.6328C3.3363 10.9518 3.51521 11.5078 3.51521 12.0077C3.51521 12.5078 3.33636 13.0636 3.08433 13.3827L2.05326 14.5354C1.58483 15.0564 1.35062 15.3168 1.31666 15.6401C1.2827 15.9633 1.45766 16.2669 1.80757 16.8741L2.30114 17.7307C2.67443 18.3785 2.86109 18.7025 3.17867 18.8316C3.49625 18.9608 3.85542 18.8589 4.57377 18.655L5.79394 18.3113C6.25263 18.2055 6.73387 18.2656 7.15267 18.4808L7.4895 18.6752C7.84851 18.9052 8.12464 19.2442 8.2775 19.6428L8.61149 20.6403C8.83106 21.3003 8.94085 21.6303 9.20223 21.8191C9.4636 22.0078 9.81078 22.0078 10.5051 22.0078H11.6199C12.3143 22.0078 12.6615 22.0078 12.9228 21.8191C13.1842 21.6303 13.294 21.3003 13.5136 20.6403L13.8476 19.6428C14.0004 19.2442 14.2765 18.9052 14.6356 18.6752L14.9724 18.4808C15.3912 18.2656 15.8724 18.2055 16.3311 18.3113L17.5513 18.655C18.2696 18.8589 18.6288 18.9608 18.9464 18.8316C19.264 18.7025 19.4506 18.3785 19.8239 17.7307L20.3175 16.8741C20.6674 16.2669 20.8423 15.9633 20.8084 15.6401C20.7744 15.3168 20.5402 15.0564 20.0718 14.5354L19.0407 13.3827C18.7887 13.0636 18.6098 12.5078 18.6098 12.0077C18.6098 11.5078 18.7888 10.9518 19.0407 10.6328L20.0718 9.48012C20.5402 8.95918 20.7744 8.69871 20.8084 8.37549C20.8423 8.05227 20.6674 7.74864 20.3175 7.14139Z" stroke="white" stroke-width="2.5" stroke-linecap="round"/>
<path id="Ellipse 1200" d="M14.5195 12C14.5195 13.933 12.9525 15.5 11.0195 15.5C9.08653 15.5 7.51953 13.933 7.51953 12C7.51953 10.067 9.08653 8.5 11.0195 8.5C12.9525 8.5 14.5195 10.067 14.5195 12Z" stroke="white" stroke-width="2.5"/>
</g>
</svg>
