<svg width="16" height="16" viewBox="0 0 16 16" fill="none" xmlns="http://www.w3.org/2000/svg">
<g id="elements">
<path id="Vector 4571" d="M8 2.33337V1.33337" stroke="#C2D0D2" stroke-linecap="round" stroke-linejoin="round"/>
<path id="Vector" d="M8.00065 2.33337C7.37449 2.33337 5.01926 4.86219 4.64853 8.13581M8.00065 2.33337C8.62681 2.33337 10.982 4.86219 11.3528 8.13581M8.00065 2.33337C11.2918 2.33337 14.037 4.62372 14.6673 7.66671C13.7422 8.46671 12.0722 8.31278 11.3528 8.13581M8.00065 2.33337C4.70954 2.33337 1.96429 4.62372 1.33398 7.66671C2.25926 8.46671 3.92922 8.31278 4.64853 8.13581M4.64853 8.13581C5.63792 8.68593 6.78185 9.00004 8.00065 9.00004C9.21945 9.00004 10.3634 8.68593 11.3528 8.13581" stroke="#C2D0D2" stroke-linecap="round" stroke-linejoin="round"/>
<path id="Vector 4572" d="M8 9V13.6667C8 14.219 7.55228 14.6667 7 14.6667C6.44772 14.6667 6 14.219 6 13.6667V13.3333" stroke="#C2D0D2" stroke-linecap="round" stroke-linejoin="round"/>
</g>
</svg>
