<svg width="80" height="32" viewBox="0 0 80 32" fill="none" xmlns="http://www.w3.org/2000/svg">
<path id="Subtract" fill-rule="evenodd" clip-rule="evenodd" d="M65.8654 1.61081C65.9185 0.850654 65.3454 0.191338 64.5852 0.138183C63.8251 0.0850288 63.1658 0.658163 63.1126 1.41832L63.0251 2.66962C55.948 2.56401 49.5694 6.00916 47.6733 11.4348C47.4761 11.999 47.6646 12.626 48.1401 12.9879C48.8742 13.5467 49.7746 13.8168 50.6139 13.9515C51.4681 14.0886 52.3766 14.1034 53.2234 14.0666C54.4686 14.0124 55.7458 13.8322 56.5873 13.7135L56.5874 13.7135L56.5883 13.7133C56.6776 13.7007 56.762 13.6888 56.841 13.6778C57.1713 13.862 57.4975 14.0645 57.8393 14.2825C57.9287 14.3395 58.0203 14.3984 58.1137 14.4583L58.1141 14.4586C58.4914 14.7009 58.8981 14.9621 59.3118 15.2015C59.4979 15.3092 59.6894 15.4148 59.8872 15.5165L59.8612 15.7136L57.8868 30.6781L57.7308 31.8601H60.6964L60.82 30.9239L62.7319 16.4328C62.8945 16.4542 63.061 16.471 63.2317 16.483C63.3267 16.4896 63.4205 16.4947 63.5132 16.4982L63.5122 16.5056L63.5103 16.5198L63.5084 16.5343L63.5065 16.5488L63.5045 16.5636L63.5025 16.5784L63.5005 16.5935L63.4985 16.6087L63.4965 16.6241L63.4944 16.6396L63.4923 16.6553L63.4902 16.6711L63.4881 16.6871L63.486 16.7032L63.4838 16.7195L63.4816 16.736L63.4794 16.7526L63.4772 16.7693L63.4749 16.7862L63.4727 16.8033L63.4704 16.8205L63.4681 16.8378L63.4657 16.8553L63.4634 16.873L63.461 16.8908L63.4586 16.9087L63.4562 16.9268L63.4538 16.9451L63.4514 16.9635L63.4489 16.982L63.4464 17.0007L63.4439 17.0195L63.4414 17.0385L63.4389 17.0576L63.4363 17.0768L63.4337 17.0962L63.4311 17.1158L63.4285 17.1354L63.4259 17.1553L63.4232 17.1752L63.4205 17.1953L63.4179 17.2156L63.4151 17.236L63.4124 17.2565L63.4097 17.2771L63.4069 17.2979L63.4041 17.3188L63.4013 17.3399L63.3985 17.3611L63.3957 17.3824L63.3928 17.4039L63.3899 17.4255L63.3871 17.4473L63.3841 17.4691L63.3812 17.4911L63.3783 17.5133L63.3753 17.5355L63.3723 17.5579L63.3694 17.5804L63.3663 17.6031L63.3633 17.6259L63.3603 17.6488L63.3572 17.6718L63.3541 17.695L63.351 17.7183L63.3479 17.7417L63.3448 17.7652L63.3416 17.7889L63.3385 17.8127L63.3353 17.8366L63.3321 17.8607L63.3289 17.8848L63.3257 17.9091L63.3224 17.9335L63.3192 17.9581L63.3159 17.9827L63.3126 18.0075L63.3093 18.0324L63.3059 18.0574L63.3026 18.0825L63.2993 18.1078L63.2959 18.1332L63.2925 18.1586L63.2891 18.1842L63.2857 18.21L63.2822 18.2358L63.2788 18.2617L63.2753 18.2878L63.2718 18.314L63.2683 18.3403L63.2648 18.3667L63.2613 18.3932L63.2578 18.4198L63.2542 18.4465L63.2507 18.4734L63.2471 18.5003L63.2435 18.5274L63.2399 18.5546L63.2362 18.5819L63.2326 18.6093L63.2289 18.6368L63.2253 18.6644L63.2216 18.6921L63.2179 18.7199L63.2142 18.7478L63.2104 18.7759L63.2067 18.804L63.203 18.8322L63.1992 18.8606L63.1954 18.889L63.1916 18.9176L63.1878 18.9462L63.184 18.975L63.1801 19.0038L63.1763 19.0327L63.1724 19.0618L63.1686 19.0909L63.1647 19.1202L63.1608 19.1495L63.1569 19.179L63.1529 19.2085L63.149 19.2381L63.145 19.2679L63.1411 19.2977L63.1371 19.3276L63.1331 19.3576L63.1291 19.3877L63.1251 19.4179L63.1211 19.4482L63.117 19.4786L63.113 19.5091L63.1089 19.5396L63.1048 19.5703L63.1008 19.601L63.0967 19.6319L63.0925 19.6628L63.0884 19.6938L63.0843 19.7249L63.0801 19.7561L63.076 19.7874L63.0718 19.8187L63.0676 19.8502L63.0635 19.8817L63.0592 19.9133L63.055 19.945L63.0508 19.9768L63.0466 20.0086L63.0423 20.0406L63.0381 20.0726L63.0338 20.1047L63.0295 20.1369L63.0252 20.1692L63.0209 20.2015L63.0166 20.2339L63.0123 20.2664L63.008 20.299L63.0036 20.3317L62.9993 20.3644L62.9949 20.3972L62.9906 20.4301L62.9862 20.4631L62.9818 20.4961L62.9774 20.5292L62.973 20.5624L62.9685 20.5957L62.9641 20.629L62.9597 20.6624L62.9552 20.6959L62.9508 20.7294L62.9463 20.763L62.9418 20.7967L62.9373 20.8305L62.9328 20.8643L62.9283 20.8982L62.9238 20.9321L62.9193 20.9662L62.9148 21.0002L62.9102 21.0344L62.9057 21.0686L62.9011 21.1029L62.8965 21.1373L62.892 21.1717L62.8874 21.2062L62.8828 21.2407L62.8782 21.2753L62.8736 21.31L62.869 21.3447L62.8644 21.3795L62.8597 21.4143L62.8551 21.4492L62.8504 21.4842L62.8458 21.5192L62.8411 21.5543L62.8364 21.5895L62.8318 21.6247L62.8271 21.6599L62.8224 21.6952L62.8177 21.7306L62.813 21.766L62.8083 21.8015L62.8035 21.837L62.7988 21.8726L62.7941 21.9082L62.7893 21.9439L62.7846 21.9797L62.7798 22.0154L62.7751 22.0513L62.7703 22.0872L62.7655 22.1231L62.7607 22.1591L62.7559 22.1951L62.7511 22.2312L62.7463 22.2673L62.7415 22.3035L62.7367 22.3397L62.7319 22.376L62.7271 22.4123L62.7222 22.4487L62.7174 22.4851L62.7125 22.5215L62.7077 22.558L62.7028 22.5945L62.698 22.6311L62.6931 22.6677L62.6882 22.7044L62.6834 22.7411L62.6785 22.7778L62.6736 22.8146L62.6687 22.8514L62.6638 22.8882L62.6589 22.9251L62.654 22.962L62.6491 22.999L62.6442 23.036L62.6392 23.073L62.6343 23.1101L62.6294 23.1472L62.6244 23.1843L62.6195 23.2215L62.6146 23.2587L62.6096 23.2959L62.6047 23.3332L62.5997 23.3705L62.5947 23.4078L62.5898 23.4452L62.5848 23.4825L62.5798 23.52L62.5748 23.5574L62.5699 23.5949L62.5649 23.6324L62.5599 23.6699L62.5549 23.7074L62.5499 23.745L62.5449 23.7826L62.5399 23.8202L62.5349 23.8579L62.5299 23.8956L62.5249 23.9333L62.5199 23.971L62.5149 24.0087L62.5098 24.0465L62.5048 24.0843L62.4998 24.1221L62.4948 24.1599L62.4897 24.1977L62.4847 24.2356L62.4797 24.2735L62.4746 24.3114L62.4696 24.3493L62.4645 24.3872L62.4595 24.4251L62.4545 24.4631L62.4494 24.5011L62.4444 24.5391L62.4393 24.5771L62.4343 24.6151L62.4292 24.6531L62.4241 24.6912L62.4191 24.7292L62.414 24.7673L62.409 24.8054L62.4039 24.8434L62.3988 24.8815L62.3938 24.9196L62.3887 24.9577L62.3836 24.9959L62.3786 25.034L62.3735 25.0721L62.3684 25.1103L62.3634 25.1484L62.3583 25.1866L62.3532 25.2247L62.3481 25.2629L62.3431 25.301L62.338 25.3392L62.3329 25.3774L62.3279 25.4156L62.3228 25.4537L62.3177 25.4919L62.3126 25.5301L62.3076 25.5683L62.3025 25.6064L62.2974 25.6446L62.2923 25.6828L62.2873 25.7209L62.2822 25.7591L62.2771 25.7973L62.272 25.8354L62.267 25.8736L62.2619 25.9117L62.2568 25.9499L62.2518 25.988L62.2467 26.0261L62.2416 26.0643L62.2366 26.1024L62.2315 26.1405L62.2264 26.1786L62.2214 26.2167L62.2163 26.2547L62.2112 26.2928L62.2062 26.3309L62.2011 26.3689L62.1961 26.4069L62.191 26.445L62.186 26.483L62.1809 26.521L62.1759 26.5589L62.1708 26.5969L62.1658 26.6349L62.1607 26.6728L62.1557 26.7107L62.1507 26.7486L62.1456 26.7865L62.1406 26.8244L62.1355 26.8622L62.1305 26.9L62.1255 26.9379L62.1205 26.9756L62.1155 27.0134L62.1104 27.0512L62.1054 27.0889L62.1004 27.1266L62.0954 27.1643L62.0904 27.2019L62.0854 27.2396L62.0804 27.2772L62.0754 27.3148L62.0704 27.3523L62.0654 27.3898L62.0604 27.4274L62.0554 27.4648L62.0505 27.5023L62.0455 27.5397L62.0405 27.5771L62.0356 27.6145L62.0306 27.6518L62.0256 27.6891L62.0207 27.7264L62.0157 27.7636L62.0108 27.8008L62.0058 27.838L62.0009 27.8752L61.996 27.9123L61.991 27.9494L61.9861 27.9864L61.9812 28.0234L61.9763 28.0604L61.9714 28.0973L61.9665 28.1342L61.9616 28.1711L61.9567 28.2079L61.9518 28.2447L61.9469 28.2814L61.942 28.3181L61.9371 28.3548L61.9323 28.3914L61.9274 28.428L61.9226 28.4646L61.9177 28.5011L61.9129 28.5375L61.908 28.5739L61.9032 28.6103L61.8983 28.6467L61.8935 28.6829L61.8887 28.7192L61.8839 28.7554L61.8791 28.7915L61.8743 28.8276L61.8695 28.8637L61.8647 28.8997L61.8599 28.9356L61.8552 28.9715L61.8504 29.0074L61.8456 29.0432L61.8409 29.0789L61.8361 29.1146L61.8314 29.1503L61.8267 29.1859L61.8219 29.2214L61.8172 29.2569L61.8125 29.2924L61.8078 29.3278L61.8031 29.3631L61.7984 29.3984L61.7937 29.4336L61.7891 29.4687L61.7844 29.5039L61.7797 29.5389L61.7751 29.5739L61.7705 29.6088L61.7658 29.6437L61.7612 29.6785L61.7566 29.7132L61.752 29.7479L61.7474 29.7826L61.7428 29.8171L61.7382 29.8516L61.7336 29.8861L61.729 29.9204L61.7245 29.9548L61.7199 29.989L61.7154 30.0232L61.7108 30.0573L61.7063 30.0913L61.7018 30.1253L61.6973 30.1592L61.6928 30.1931L61.6883 30.2269L61.6838 30.2606L61.6793 30.2942L61.6749 30.3278L61.6704 30.3613L61.666 30.3947L61.6615 30.4281L61.6571 30.4614L61.4712 31.8601H64.4371L64.5901 30.7091L64.5946 30.6758L64.599 30.6424L64.6034 30.609L64.6079 30.5755L64.6123 30.542L64.6168 30.5083L64.6213 30.4746L64.6258 30.4408L64.6303 30.407L64.6348 30.3731L64.6393 30.3391L64.6438 30.305L64.6484 30.2709L64.6529 30.2367L64.6575 30.2025L64.662 30.1682L64.6666 30.1338L64.6712 30.0994L64.6758 30.0649L64.6804 30.0303L64.685 29.9957L64.6896 29.961L64.6942 29.9262L64.6988 29.8914L64.7034 29.8565L64.7081 29.8216L64.7127 29.7866L64.7174 29.7516L64.7221 29.7165L64.7267 29.6813L64.7314 29.6461L64.7361 29.6108L64.7408 29.5755L64.7455 29.5401L64.7502 29.5047L64.7549 29.4692L64.7597 29.4336L64.7644 29.398L64.7691 29.3624L64.7739 29.3267L64.7786 29.2909L64.7834 29.2551L64.7882 29.2193L64.7929 29.1834L64.7977 29.1474L64.8025 29.1114L64.8073 29.0753L64.8121 29.0392L64.8169 29.0031L64.8217 28.9669L64.8265 28.9307L64.8313 28.8944L64.8362 28.8581L64.841 28.8217L64.8458 28.7853L64.8507 28.7488L64.8556 28.7123L64.8604 28.6758L64.8653 28.6392L64.8701 28.6025L64.875 28.5659L64.8799 28.5292L64.8848 28.4924L64.8897 28.4556L64.8946 28.4188L64.8995 28.3819L64.9044 28.3451L64.9093 28.3081L64.9142 28.2711L64.9191 28.2341L64.924 28.1971L64.929 28.16L64.9339 28.1229L64.9388 28.0858L64.9438 28.0486L64.9487 28.0114L64.9537 27.9741L64.9586 27.9368L64.9636 27.8995L64.9686 27.8622L64.9735 27.8248L64.9785 27.7874L64.9835 27.75L64.9884 27.7126L64.9934 27.6751L64.9984 27.6376L65.0034 27.6L65.0084 27.5625L65.0134 27.5249L65.0184 27.4873L65.0234 27.4497L65.0284 27.412L65.0334 27.3743L65.0384 27.3366L65.0434 27.2989L65.0484 27.2611L65.0535 27.2234L65.0585 27.1856L65.0635 27.1478L65.0686 27.11L65.0736 27.0721L65.0786 27.0342L65.0836 26.9964L65.0887 26.9585L65.0937 26.9205L65.0988 26.8826L65.1038 26.8446L65.1089 26.8067L65.1139 26.7687L65.119 26.7307L65.124 26.6927L65.1291 26.6547L65.1341 26.6166L65.1392 26.5786L65.1442 26.5405L65.1493 26.5025L65.1544 26.4644L65.1594 26.4263L65.1645 26.3882L65.1695 26.3501L65.1746 26.312L65.1797 26.2739L65.1848 26.2357L65.1898 26.1976L65.1949 26.1595L65.2 26.1213L65.205 26.0832L65.2101 26.045L65.2152 26.0068L65.2203 25.9687L65.2253 25.9305L65.2304 25.8923L65.2355 25.8542L65.2405 25.816L65.2456 25.7778L65.2507 25.7396L65.2558 25.7015L65.2608 25.6633L65.2659 25.6251L65.271 25.5869L65.2761 25.5488L65.2811 25.5106L65.2862 25.4725L65.2913 25.4343L65.2964 25.3961L65.3014 25.358L65.3065 25.3199L65.3116 25.2817L65.3166 25.2436L65.3217 25.2055L65.3268 25.1674L65.3318 25.1293L65.3369 25.0912L65.342 25.0531L65.347 25.015L65.3521 24.9769L65.3571 24.9389L65.3622 24.9009L65.3672 24.8628L65.3723 24.8248L65.3774 24.7868L65.3824 24.7488L65.3875 24.7108L65.3925 24.6729L65.3975 24.6349L65.4026 24.597L65.4076 24.5591L65.4127 24.5212L65.4177 24.4833L65.4227 24.4455L65.4278 24.4076L65.4328 24.3698L65.4378 24.332L65.4428 24.2942L65.4479 24.2564L65.4529 24.2187L65.4579 24.181L65.4629 24.1433L65.4679 24.1056L65.4729 24.068L65.4779 24.0303L65.4829 23.9927L65.4879 23.9552L65.4929 23.9176L65.4979 23.8801L65.5029 23.8426L65.5079 23.8051L65.5128 23.7677L65.5178 23.7303L65.5228 23.6929L65.5277 23.6555L65.5327 23.6182L65.5377 23.5809L65.5426 23.5437L65.5476 23.5064L65.5525 23.4692L65.5574 23.4321L65.5624 23.3949L65.5673 23.3578L65.5722 23.3208L65.5772 23.2837L65.5821 23.2467L65.587 23.2098L65.5919 23.1728L65.5968 23.136L65.6017 23.0991L65.6066 23.0623L65.6115 23.0255L65.6164 22.9888L65.6212 22.9521L65.6261 22.9154L65.631 22.8788L65.6358 22.8423L65.6407 22.8057L65.6455 22.7692L65.6504 22.7328L65.6552 22.6964L65.6601 22.66L65.6649 22.6237L65.6697 22.5875L65.6745 22.5512L65.6793 22.5151L65.6841 22.4789L65.6889 22.4429L65.6937 22.4068L65.6985 22.3708L65.7033 22.3349L65.7081 22.299L65.7128 22.2632L65.7176 22.2274L65.7223 22.1916L65.7271 22.156L65.7318 22.1203L65.7365 22.0847L65.7413 22.0492L65.746 22.0137L65.7507 21.9783L65.7554 21.943L65.7601 21.9077L65.7648 21.8724L65.7694 21.8372L65.7741 21.8021L65.7788 21.767L65.7834 21.732L65.7881 21.697L65.7927 21.6621L65.7973 21.6272L65.802 21.5924L65.8066 21.5577L65.8112 21.523L65.8158 21.4884L65.8204 21.4539L65.825 21.4194L65.8296 21.385L65.8341 21.3506L65.8387 21.3164L65.8432 21.2821L65.8478 21.248L65.8523 21.2139L65.8568 21.1799L65.8613 21.1459L65.8658 21.112L65.8703 21.0782L65.8748 21.0444L65.8793 21.0108L65.8838 20.9771L65.8882 20.9436L65.8927 20.9101L65.8971 20.8767L65.9015 20.8434L65.906 20.8101L65.9104 20.7769L65.9148 20.7438L65.9192 20.7108L65.9236 20.6778L65.9279 20.6449L65.9323 20.6121L65.9366 20.5794L65.941 20.5467L65.9453 20.5142L65.9496 20.4817L65.9539 20.4492L65.9582 20.4169L65.9625 20.3846L65.9668 20.3524L65.9711 20.3203L65.9753 20.2883L65.9796 20.2564L65.9838 20.2245L65.988 20.1927L65.9922 20.161L65.9965 20.1294L66.0006 20.0979L66.0048 20.0664L66.009 20.0351L66.0131 20.0038L66.0173 19.9726L66.0214 19.9415L66.0255 19.9105L66.0297 19.8796L66.0338 19.8488L66.0378 19.818L66.0419 19.7874L66.046 19.7568L66.05 19.7263L66.0541 19.6959L66.0581 19.6657L66.0621 19.6355L66.0661 19.6054L66.0701 19.5753L66.0741 19.5454L66.078 19.5156L66.082 19.4859L66.0859 19.4562L66.0899 19.4267L66.0938 19.3973L66.0977 19.3679L66.1016 19.3387L66.1054 19.3095L66.1093 19.2805L66.1131 19.2515L66.117 19.2227L66.1208 19.1939L66.1246 19.1653L66.1284 19.1367L66.1322 19.1083L66.1359 19.08L66.1397 19.0517L66.1434 19.0236L66.1472 18.9956L66.1509 18.9676L66.1546 18.9398L66.1583 18.9121L66.1619 18.8845L66.1656 18.857L66.1692 18.8296L66.1729 18.8023L66.1765 18.7751L66.1801 18.7481L66.1837 18.7211L66.1872 18.6943L66.1908 18.6675L66.1943 18.6409L66.1978 18.6144L66.2013 18.588L66.2048 18.5617L66.2083 18.5355L66.2118 18.5095L66.2152 18.4835L66.2187 18.4577L66.2221 18.432L66.2255 18.4064L66.2289 18.3809L66.2322 18.3555L66.2356 18.3303L66.2389 18.3051L66.2423 18.2801L66.2456 18.2552L66.2489 18.2305L66.2522 18.2058L66.2554 18.1813L66.2587 18.1569L66.2619 18.1326L66.2651 18.1084L66.2683 18.0844L66.2715 18.0604L66.2746 18.0367L66.2778 18.013L66.2809 17.9894L66.284 17.966L66.2871 17.9427L66.2902 17.9196L66.2933 17.8965L66.2963 17.8736L66.2993 17.8508L66.3023 17.8282L66.3053 17.8056L66.3083 17.7832L66.3113 17.761L66.3142 17.7389L66.3171 17.7169L66.3201 17.695L66.3229 17.6732L66.3258 17.6516L66.3287 17.6302L66.3315 17.6088L66.3343 17.5876L66.3371 17.5666L66.3399 17.5456L66.3427 17.5249L66.3454 17.5042L66.3481 17.4837L66.3508 17.4633L66.3535 17.4431L66.3562 17.423L66.3589 17.403L66.3615 17.3832L66.3641 17.3635L66.3667 17.344L66.3693 17.3246L66.3718 17.3053L66.3744 17.2862L66.3769 17.2672L66.3794 17.2484L66.3819 17.2297L66.3844 17.2112L66.3868 17.1928L66.3892 17.1746L66.3916 17.1565L66.394 17.1385L66.3964 17.1207L66.3987 17.1031L66.4011 17.0856L66.4034 17.0682L66.4057 17.051L66.4079 17.0339L66.4102 17.017L66.4124 17.0003L66.4146 16.9837L66.4168 16.9672L66.419 16.951L66.4211 16.9348L66.4232 16.9188L66.4253 16.903L66.4274 16.8873L66.4295 16.8718L66.4315 16.8564L66.4335 16.8412L66.4355 16.8262L66.4375 16.8113L66.4395 16.7966L66.4414 16.782L66.4433 16.7676L66.4452 16.7533L66.4471 16.7392L66.449 16.7253L66.4508 16.7115L66.4526 16.6979L66.4544 16.6845L66.4561 16.6712L66.4579 16.6581L66.4596 16.6451L66.4613 16.6323L66.463 16.6197L66.4646 16.6073L66.4663 16.595L66.4679 16.5829L66.4695 16.5709L66.471 16.5591L66.4726 16.5475L66.4741 16.536L66.4756 16.5248L66.4771 16.5137L66.4785 16.5027L66.48 16.492L66.4814 16.4814L66.4828 16.4709L66.4841 16.4607L66.4855 16.4506L66.4868 16.4407L66.4881 16.431L66.4893 16.4215L66.4906 16.4121L66.4918 16.4029L66.493 16.3939L66.4942 16.385L66.4953 16.3764L66.4965 16.3679L66.4976 16.3596L66.4986 16.3514L66.4997 16.3435L66.5007 16.3357L66.5017 16.3281L66.5027 16.3207L66.5037 16.3135L66.5046 16.3065L66.5055 16.2996L66.5064 16.2929L66.5073 16.2864L66.5081 16.2801L66.5089 16.274L66.5097 16.2681L66.5105 16.2623L66.5112 16.2568L66.5119 16.2514L66.5126 16.2462L66.5133 16.2412L66.5139 16.2364L66.5145 16.2318L66.5151 16.2274L66.5157 16.2232L66.5162 16.2191L66.5167 16.2153L66.5172 16.2116L66.5177 16.2082L66.5181 16.2049L66.5185 16.2018L66.5189 16.1989L66.5193 16.1962L66.5196 16.1937L66.5199 16.1914L66.5202 16.1894L66.5204 16.1874L66.5207 16.1857L66.5209 16.1842L66.521 16.1829L66.5212 16.1818L66.5213 16.1809L66.5214 16.1802L66.5215 16.1797L66.5215 16.1794C66.5215 16.1794 66.5216 16.1793 66.2409 16.1556L66.5215 16.1793L66.5368 16.0644C66.7651 15.9902 66.9868 15.9098 67.2031 15.8254C67.6506 15.6509 68.0912 15.453 68.5006 15.2691C68.5838 15.2318 68.6657 15.195 68.746 15.1591C69.1079 14.9976 69.4557 14.8465 69.8105 14.7109L69.8719 14.7276C70.7051 14.9548 72.054 15.3227 73.437 15.5475C74.2877 15.6857 75.2036 15.7799 76.0766 15.7502C76.9323 15.7211 77.8642 15.5701 78.6629 15.1222C79.1841 14.8299 79.4579 14.2353 79.3412 13.6493C78.2409 8.12452 72.6118 3.88458 65.776 2.88932L65.8654 1.61081ZM0 14.2087V31.6017H3.15079V25.2322H6.35697L9.77511 31.6017H13.2911L9.52909 24.7159C9.64228 24.6702 9.75259 24.6215 9.86003 24.5698C10.7772 24.1225 11.4708 23.4912 11.9407 22.6759C12.4163 21.8549 12.6541 20.8868 12.6541 19.7714C12.6541 18.6617 12.4192 17.6907 11.9492 16.8584C11.485 16.0204 10.7971 15.3693 9.88551 14.9051C8.97962 14.4408 7.85859 14.2087 6.5224 14.2087H0ZM3.15079 22.6164H6.0553C6.83663 22.6164 7.47641 22.5089 7.97465 22.2937C8.47289 22.0729 8.84091 21.753 9.0787 21.334C9.32216 20.9094 9.44389 20.3885 9.44389 19.7714C9.44389 19.1542 9.32216 18.6277 9.0787 18.1917C8.83525 17.7501 8.4644 17.4161 7.96616 17.1896C7.46792 16.9575 6.82531 16.8414 6.03831 16.8414H3.15079V22.6164ZM15.7049 31.0412C16.6561 31.5847 17.7856 31.8565 19.0935 31.8565C20.1069 31.8565 21.0072 31.7036 21.7942 31.3979C22.5811 31.0865 23.2266 30.6505 23.7305 30.09C24.2401 29.5238 24.5854 28.8614 24.7666 28.1027L21.8961 27.78C21.7602 28.148 21.5592 28.4566 21.2931 28.7057C21.027 28.9548 20.7128 29.1445 20.3504 29.2747C19.988 29.3993 19.5832 29.4616 19.1359 29.4616C18.4678 29.4616 17.8847 29.32 17.3864 29.0369C16.8882 28.7482 16.5004 28.3349 16.2229 27.797C15.9549 27.2718 15.8163 26.6462 15.8073 25.9201H24.894V24.9774C24.894 23.8337 24.7355 22.8486 24.4184 22.0219C24.1013 21.1897 23.6654 20.5046 23.1105 19.9667C22.5613 19.4288 21.9272 19.0325 21.2082 18.7777C20.4948 18.5173 19.7361 18.3871 18.9321 18.3871C17.6865 18.3871 16.6023 18.673 15.6794 19.2448C14.7565 19.811 14.0375 20.6037 13.5223 21.6228C13.0127 22.6363 12.7579 23.8139 12.7579 25.1558C12.7579 26.5202 13.0127 27.7064 13.5223 28.7142C14.0318 29.7163 14.7594 30.492 15.7049 31.0412ZM15.8131 23.8479C15.8426 23.3368 15.9736 22.864 16.206 22.4296C16.4721 21.937 16.8429 21.5407 17.3185 21.2406C17.7941 20.9349 18.3461 20.782 18.9746 20.782C19.5634 20.782 20.0786 20.9151 20.5203 21.1812C20.9675 21.4473 21.3157 21.8125 21.5649 22.2767C21.814 22.7353 21.9414 23.259 21.947 23.8479H15.8131ZM25.5816 31.6017H28.656V23.9583C28.656 23.3298 28.7721 22.7948 29.0042 22.3532C29.242 21.9115 29.5676 21.5747 29.9809 21.3425C30.3998 21.1047 30.8783 20.9858 31.4161 20.9858C32.2088 20.9858 32.8288 21.2321 33.276 21.7247C33.729 22.2173 33.9555 22.8995 33.9555 23.7714V31.6017H37.0298V23.2959C37.0355 22.2541 36.8515 21.368 36.4778 20.6376C36.1098 19.9073 35.5889 19.3496 34.9151 18.9646C34.247 18.5796 33.4629 18.3871 32.5627 18.3871C31.5888 18.3871 30.7707 18.6022 30.1083 19.0325C29.4515 19.4628 28.9731 20.0431 28.673 20.7735H28.5201V18.5569H25.5816V31.6017ZM44.7558 20.9349V18.5569H42.1825V15.4316H39.1082V18.5569H37.2567V20.9349H39.1082V28.1877C39.1025 29.003 39.278 29.6824 39.6347 30.2259C39.9971 30.7694 40.4868 31.1714 41.1039 31.4319C41.7211 31.6866 42.4146 31.8027 43.1847 31.7801C43.6206 31.7687 43.9886 31.7291 44.2887 31.6612C44.5944 31.5932 44.8294 31.5309 44.9936 31.4743L44.4755 29.0709C44.3906 29.0935 44.2661 29.119 44.1019 29.1473C43.9433 29.1756 43.7678 29.1898 43.5753 29.1898C43.3205 29.1898 43.0884 29.1502 42.8789 29.0709C42.6694 28.9916 42.4996 28.8444 42.3694 28.6293C42.2448 28.4085 42.1825 28.0914 42.1825 27.6781V20.9349H44.7558ZM47.6601 31.0412C48.6112 31.5847 49.7408 31.8565 51.0486 31.8565C52.0621 31.8565 52.9623 31.7036 53.7493 31.3979C54.5363 31.0865 55.1818 30.6505 55.6857 30.09C56.1952 29.5238 56.5406 28.8614 56.7218 28.1027L53.8512 27.78C53.7154 28.148 53.5144 28.4566 53.2483 28.7057C52.9822 28.9548 52.6679 29.1445 52.3056 29.2747C51.9432 29.3993 51.5384 29.4616 51.0911 29.4616C50.423 29.4616 49.8399 29.32 49.3416 29.0369C48.8434 28.7482 48.4555 28.3349 48.1781 27.797C47.91 27.2718 47.7715 26.6462 47.7624 25.9201H56.8492V24.9774C56.8492 23.8337 56.6906 22.8486 56.3736 22.0219C56.0565 21.1897 55.6206 20.5046 55.0657 19.9667C54.5165 19.4288 53.8824 19.0325 53.1633 18.7777C52.4499 18.5173 51.6913 18.3871 50.8873 18.3871C49.6417 18.3871 48.5574 18.673 47.6346 19.2448C46.7117 19.811 45.9927 20.6037 45.4774 21.6228C44.9679 22.6363 44.7131 23.8139 44.7131 25.1558C44.7131 26.5202 44.9679 27.7064 45.4774 28.7142C45.987 29.7163 46.7145 30.492 47.6601 31.0412ZM47.7682 23.8479C47.7978 23.3368 47.9287 22.864 48.1611 22.4296C48.4272 21.937 48.7981 21.5407 49.2737 21.2406C49.7493 20.9349 50.3013 20.782 50.9297 20.782C51.5186 20.782 52.0338 20.9151 52.4754 21.1812C52.9227 21.4473 53.2709 21.8125 53.52 22.2767C53.7691 22.7353 53.8965 23.259 53.9022 23.8479H47.7682ZM69.2005 31.4234C69.863 31.7178 70.6075 31.865 71.4341 31.865C72.1135 31.865 72.7052 31.7716 73.2091 31.5847C73.7187 31.3922 74.1405 31.1403 74.4745 30.8289C74.8142 30.5118 75.0775 30.1721 75.2643 29.8098H75.3662V31.6017H78.3217V22.8712C78.3217 22.005 78.1632 21.2831 77.8461 20.7056C77.5347 20.1281 77.1214 19.6723 76.6062 19.3382C76.091 18.9985 75.5219 18.7551 74.8991 18.6079C74.2763 18.4607 73.6507 18.3871 73.0223 18.3871C72.1107 18.3871 71.2784 18.5229 70.5254 18.7947C69.7724 19.0608 69.1354 19.4628 68.6145 20.0007C68.0937 20.5329 67.72 21.1953 67.4935 21.988L70.364 22.3956C70.5169 21.9483 70.8113 21.5605 71.2473 21.2321C71.6889 20.9037 72.2862 20.7395 73.0392 20.7395C73.7526 20.7395 74.299 20.9151 74.6783 21.2661C75.0577 21.6171 75.2473 22.1125 75.2473 22.7523V22.8033C75.2473 23.0977 75.1369 23.3157 74.9161 23.4572C74.701 23.5931 74.3556 23.695 73.88 23.7629C73.4044 23.8252 72.7845 23.896 72.0201 23.9753C71.386 24.0432 70.7717 24.1536 70.1772 24.3065C69.5884 24.4537 69.059 24.6717 68.5891 24.9604C68.1191 25.2492 67.7483 25.6342 67.4765 26.1154C67.2048 26.5967 67.0689 27.2053 67.0689 27.9414C67.0689 28.7963 67.2585 29.5153 67.6379 30.0985C68.0229 30.6817 68.5438 31.1233 69.2005 31.4234ZM73.8376 29.2407C73.3846 29.4842 72.8496 29.6059 72.2324 29.6059C71.5926 29.6059 71.0661 29.4616 70.6528 29.1728C70.2395 28.8841 70.0328 28.4566 70.0328 27.8904C70.0328 27.4941 70.1376 27.1714 70.347 26.9222C70.5565 26.6675 70.8425 26.4693 71.2048 26.3277C71.5672 26.1862 71.9776 26.0843 72.4363 26.022C72.6401 25.9937 72.8807 25.9597 73.1581 25.9201C73.4356 25.8805 73.7158 25.8352 73.9989 25.7842C74.282 25.7333 74.5368 25.6738 74.7633 25.6059C74.9954 25.5379 75.1596 25.4643 75.2558 25.3851V26.9222C75.2558 27.4035 75.1313 27.8479 74.8822 28.2556C74.6387 28.6632 74.2905 28.9916 73.8376 29.2407ZM50.8042 11.1815C50.8823 11.1978 50.9646 11.213 51.0512 11.2269C51.6525 11.3234 52.3576 11.3421 53.1034 11.3097C54.1756 11.2631 55.1791 11.1238 55.9982 11.0083C56.6359 8.87574 57.734 7.13747 58.9147 5.82291C55.1473 6.64599 52.2062 8.6712 50.8042 11.1815ZM63.9956 5.47951L63.9914 5.48058C63.9203 5.49832 63.6788 5.55863 63.2569 5.78876C62.7488 6.06596 62.1263 6.51031 61.4906 7.12432C60.4004 8.17729 59.3261 9.67507 58.7119 11.5746C58.9239 11.7029 59.1275 11.8312 59.3231 11.9559C59.4287 12.0233 59.531 12.0889 59.6308 12.153L59.6321 12.1539C60.0031 12.392 60.3408 12.6088 60.6936 12.8129C61.5551 13.3113 62.3827 13.6574 63.4242 13.7302C64.4844 13.8043 65.3255 13.5957 66.2006 13.2545C66.5774 13.1076 66.9426 12.9437 67.3502 12.7607L67.3503 12.7607L67.4798 12.7026L67.6212 12.6393C67.8218 12.5498 68.0308 12.4576 68.2484 12.3658C67.9099 10.3795 67.0762 8.71345 66.1668 7.49133C65.6368 6.77912 65.0976 6.24022 64.6463 5.88789C64.2876 5.60785 64.0719 5.51307 64.0046 5.48347L63.9956 5.47951ZM71.0128 12.1773C70.6727 9.90888 69.8115 7.96966 68.8156 6.46388C72.5271 7.79144 75.2284 10.2459 76.2807 12.9747C76.187 12.9828 76.0877 12.9887 75.9829 12.9923C75.355 13.0136 74.6325 12.9461 73.8797 12.8237C72.8244 12.6522 71.812 12.3926 71.0128 12.1773Z" fill="#242B2C"/>
</svg>
